<svg width="69" height="69" viewBox="0 0 69 69" fill="none" xmlns="http://www.w3.org/2000/svg">
<circle cx="34.5" cy="34.5" r="33.5" stroke="#417CFF" stroke-width="2"/>
<path d="M43.4752 40.4293L39.4271 37.7295C38.9134 37.3897 38.2248 37.5015 37.845 37.9865L36.6658 39.5027C36.5143 39.7025 36.2388 39.7605 36.0196 39.6387L35.7953 39.5151C35.0518 39.1097 34.1266 38.6051 32.2625 36.7403C30.3985 34.8754 29.8929 33.9495 29.4876 33.2072L29.3646 32.9829C29.2411 32.7637 29.298 32.487 29.4979 32.3343L31.013 31.1554C31.4977 30.7755 31.6097 30.0871 31.2703 29.5732L28.5707 25.5248C28.2228 25.0015 27.5249 24.8444 26.9863 25.1682L25.2935 26.1851C24.7617 26.4978 24.3715 27.0042 24.2047 27.5983C23.5952 29.8194 24.0537 33.6528 29.7002 39.3004C34.1919 43.792 37.5358 44.9999 39.8341 44.9999C40.363 45.0022 40.8899 44.9334 41.4005 44.7953C41.9947 44.6288 42.5012 44.2385 42.8137 43.7064L43.8315 42.0145C44.1557 41.4758 43.9987 40.7774 43.4752 40.4293ZM43.2572 41.6725L42.2417 43.3654C42.0173 43.7495 41.653 44.0318 41.2252 44.1534C39.1748 44.7163 35.5927 44.25 30.1718 38.8288C24.7509 33.4075 24.2847 29.8255 24.8476 27.7746C24.9693 27.3462 25.252 26.9815 25.6365 26.7567L27.3293 25.7411C27.5629 25.6005 27.8659 25.6687 28.0168 25.8958L29.4833 28.0976L30.7141 29.9438C30.8615 30.1667 30.8131 30.4654 30.6028 30.6304L29.0874 31.8093C28.6262 32.1619 28.4945 32.8001 28.7784 33.3065L28.8988 33.5252C29.3247 34.3064 29.8543 35.2783 31.7877 37.2116C33.721 39.1447 34.6926 39.6744 35.4734 40.1003L35.6924 40.221C36.1988 40.5049 36.8369 40.3732 37.1895 39.912L38.3683 38.3965C38.5333 38.1863 38.8319 38.1379 39.0549 38.2851L43.1026 40.9849C43.3299 41.1358 43.398 41.4389 43.2572 41.6725Z" fill="#9BC5C6"/>
<path d="M35.4444 28.6295C38.5726 28.633 41.1076 31.1681 41.1111 34.2962C41.1111 34.4803 41.2603 34.6296 41.4444 34.6296C41.6285 34.6296 41.7778 34.4803 41.7778 34.2962C41.7739 30.8 38.9406 27.9667 35.4444 27.9629C35.2603 27.9629 35.1111 28.1121 35.1111 28.2962C35.1111 28.4803 35.2603 28.6295 35.4444 28.6295Z" fill="#9BC5C6"/>
<path d="M35.4285 30.1851C37.3562 30.1877 38.9184 32.0102 38.9206 34.2592C38.9206 34.4637 39.0628 34.6295 39.2381 34.6295C39.4134 34.6295 39.5555 34.4637 39.5555 34.2592C39.5529 31.6012 37.7067 29.4474 35.4285 29.4443C35.2532 29.4443 35.1111 29.6101 35.1111 29.8147C35.1111 30.0193 35.2532 30.1851 35.4285 30.1851Z" fill="#9BC5C6"/>
<path d="M35.3889 32.4075C36.1555 32.4087 36.7768 33.2371 36.7778 34.2594C36.7778 34.4639 36.9021 34.6297 37.0555 34.6297C37.2089 34.6297 37.3333 34.4639 37.3333 34.2594C37.3321 32.8282 36.4622 31.6684 35.3889 31.6667C35.2354 31.6667 35.1111 31.8325 35.1111 32.0371C35.1111 32.2417 35.2354 32.4075 35.3889 32.4075Z" fill="#9BC5C6"/>
</svg>
