<svg width="69" height="69" viewBox="0 0 69 69" fill="none" xmlns="http://www.w3.org/2000/svg">
<circle cx="34.5" cy="34.5" r="33.5" stroke="#417CFF" stroke-width="2"/>
<path d="M31.0465 40.2143C31.0972 40.1903 31.1427 40.1565 31.1804 40.1149C31.218 40.0733 31.2471 40.0247 31.266 39.9718C31.2849 39.9189 31.2932 39.8628 31.2905 39.8067C31.2877 39.7506 31.2739 39.6956 31.2499 39.6449C31.2259 39.5941 31.1922 39.5486 31.1506 39.5109C31.109 39.4732 31.0605 39.444 31.0076 39.4251C30.9548 39.4062 30.8988 39.3979 30.8428 39.4007C30.7867 39.4034 30.7318 39.4172 30.6811 39.4412C29.7346 39.8896 29.5359 40.4302 29.5359 40.8048C29.5359 41.4087 30.0531 41.9402 30.9922 42.3012C31.8024 42.6127 32.8705 42.7841 33.9999 42.7841C35.1293 42.7841 36.1974 42.6127 37.0076 42.3012C37.9468 41.9402 38.4639 41.4087 38.4639 40.8048C38.4639 40.4302 38.2652 39.8896 37.3187 39.4412C37.268 39.4172 37.213 39.4034 37.157 39.4007C37.101 39.3979 37.045 39.4062 36.9921 39.4251C36.9393 39.444 36.8907 39.4732 36.8492 39.5109C36.8076 39.5486 36.7738 39.5941 36.7498 39.6449C36.7259 39.6956 36.7121 39.7506 36.7093 39.8067C36.7066 39.8628 36.7149 39.9189 36.7337 39.9718C36.7526 40.0247 36.7817 40.0733 36.8194 40.1149C36.8571 40.1565 36.9026 40.1903 36.9533 40.2143C37.4376 40.4437 37.6096 40.6758 37.6096 40.8048C37.6096 41.1863 36.3354 41.9289 33.9998 41.9289C31.6641 41.9289 30.39 41.1863 30.39 40.8048C30.3902 40.6758 30.5621 40.4438 31.0465 40.2143Z" fill="#9BC5C6"/>
<path d="M34 34.3601C34.6408 34.3601 35.2672 34.1701 35.8 33.8141C36.3329 33.4581 36.7482 32.952 36.9934 32.36C37.2386 31.768 37.3028 31.1165 37.1777 30.488C37.0527 29.8595 36.7441 29.2822 36.291 28.829C35.8378 28.3759 35.2605 28.0674 34.632 27.9424C34.0035 27.8174 33.352 27.8816 32.76 28.1268C32.168 28.3721 31.6619 28.7874 31.306 29.3202C30.95 29.8531 30.76 30.4795 30.76 31.1203C30.761 31.9793 31.1027 32.8028 31.7101 33.4102C32.3175 34.0175 33.141 34.3592 34 34.3601ZM34 28.7424C34.4702 28.7424 34.9299 28.8819 35.321 29.1431C35.712 29.4044 36.0167 29.7757 36.1967 30.2102C36.3767 30.6446 36.4238 31.1227 36.3321 31.584C36.2403 32.0452 36.0139 32.4689 35.6814 32.8014C35.3489 33.134 34.9252 33.3604 34.464 33.4522C34.0028 33.544 33.5247 33.4969 33.0902 33.317C32.6557 33.137 32.2844 32.8323 32.0231 32.4413C31.7618 32.0503 31.6223 31.5906 31.6223 31.1203C31.6229 30.4899 31.8737 29.8855 32.3194 29.4397C32.7652 28.9939 33.3696 28.7431 34 28.7424Z" fill="#9BC5C6"/>
<path d="M41.9037 39.3972C41.2677 38.9172 40.3882 38.5122 39.2896 38.1928C39.1803 38.1611 39.0628 38.174 38.963 38.2288C38.8633 38.2835 38.7894 38.3756 38.7576 38.4849C38.7258 38.5941 38.7387 38.7114 38.7935 38.8111C38.8483 38.9108 38.9405 38.9846 39.0498 39.0164C40.9569 39.5705 42.1416 40.4176 42.1416 41.2271C42.1416 42.5794 38.798 44.0861 34.0002 44.0861C29.2023 44.0861 25.8587 42.5794 25.8587 41.2271C25.8587 40.4176 27.0434 39.5705 28.9505 39.0164C29.0598 38.9846 29.152 38.9108 29.2068 38.8111C29.2616 38.7114 29.2745 38.5941 29.2427 38.4849C29.211 38.3756 29.137 38.2835 29.0373 38.2288C28.9375 38.174 28.82 38.1611 28.7107 38.1928C27.6121 38.5121 26.7325 38.9172 26.0964 39.3972C25.1904 40.0809 25 40.7697 25 41.2271C25 42.2952 25.9893 43.2632 27.7857 43.9523C29.4526 44.5917 31.6596 44.9438 34.0002 44.9438C36.3407 44.9438 38.5477 44.5917 40.2143 43.9523C42.0107 43.2632 43 42.2955 43 41.2271C43 40.7697 42.8098 40.0809 41.9037 39.3972Z" fill="#9BC5C6"/>
<path d="M29.0524 35.0087C30.1454 37.0705 31.8646 38.9482 33.3901 40.5466L33.4 40.5566C33.4721 40.6273 33.6889 40.84 33.9948 40.84H34.0055C34.3114 40.84 34.5283 40.6273 34.6004 40.5566L34.6102 40.5466C36.1358 38.9484 37.855 37.0706 38.948 35.0089C39.5617 33.8511 39.9224 32.7277 40.0198 31.6701C40.1366 30.451 39.8907 29.2246 39.3128 28.1439L39.3112 28.1409C38.2879 26.2376 36.2554 25.0342 34.0067 25H34.0002H33.9937C31.745 25.034 29.7124 26.2374 28.6875 28.1436C28.1095 29.2244 27.8637 30.4508 27.9805 31.6699C28.078 32.7276 28.4386 33.8509 29.0524 35.0087ZM29.4451 28.5446C30.3204 26.9167 32.0653 25.8866 34.0002 25.855C35.9343 25.8865 37.6787 26.9159 38.5543 28.5428C39.5108 30.3579 39.3914 32.3422 38.1896 34.6092C37.1504 36.5697 35.4834 38.391 34.0002 39.9452C32.517 38.391 30.85 36.5697 29.8107 34.6094C28.6086 32.3418 28.4896 30.3569 29.4451 28.5446Z" fill="#9BC5C6"/>
</svg>
