<svg width="69" height="69" viewBox="0 0 69 69" fill="none" xmlns="http://www.w3.org/2000/svg">
<circle cx="34.5" cy="34.5" r="33.5" fill="#03223E" stroke="#417CFF" stroke-width="2"/>
<path d="M31.5471 41.128C28.9231 41.128 26.9711 39.048 26.9711 35.4C26.9711 31.752 28.9231 29.672 31.5471 29.672C34.1551 29.672 36.1071 31.752 36.1071 35.4C36.1071 39.048 34.1551 41.128 31.5471 41.128ZM31.5471 39.704C33.2911 39.704 34.5071 38.264 34.5071 35.4C34.5071 32.536 33.2911 31.096 31.5471 31.096C29.7871 31.096 28.5711 32.536 28.5711 35.4C28.5711 38.264 29.7871 39.704 31.5471 39.704ZM37.003 29.8H41.115V41H39.531V31.192H37.003V29.8Z" fill="#9BC5C6"/>
</svg>
