<svg width="69" height="69" viewBox="0 0 69 69" fill="none" xmlns="http://www.w3.org/2000/svg">
<circle cx="34.5" cy="34.5" r="33.5" fill="#03223E" stroke="#417CFF" stroke-width="2"/>
<path d="M29.9143 41.128C27.2903 41.128 25.3383 39.048 25.3383 35.4C25.3383 31.752 27.2903 29.672 29.9143 29.672C32.5223 29.672 34.4743 31.752 34.4743 35.4C34.4743 39.048 32.5223 41.128 29.9143 41.128ZM29.9143 39.704C31.6583 39.704 32.8743 38.264 32.8743 35.4C32.8743 32.536 31.6583 31.096 29.9143 31.096C28.1543 31.096 26.9383 32.536 26.9383 35.4C26.9383 38.264 28.1543 39.704 29.9143 39.704ZM38.1382 39.608H43.8822V41H35.8342V39.912L40.3942 35.512C41.5782 34.36 41.8022 33.656 41.8022 32.952C41.8022 31.8 40.9862 31.096 39.4182 31.096C38.2182 31.096 37.2422 31.48 36.5542 32.312L35.4662 31.368C36.3302 30.296 37.8182 29.672 39.5622 29.672C41.8982 29.672 43.4022 30.872 43.4022 32.792C43.4022 33.88 43.0822 34.856 41.5622 36.312L38.1382 39.608Z" fill="#9BC5C6"/>
</svg>
