<svg width="69" height="69" viewBox="0 0 69 69" fill="none" xmlns="http://www.w3.org/2000/svg">
<circle cx="34.5" cy="34.5" r="33.5" fill="#03223E" stroke="#417CFF" stroke-width="2"/>
<path d="M29.9299 41.128C27.3059 41.128 25.3539 39.048 25.3539 35.4C25.3539 31.752 27.3059 29.672 29.9299 29.672C32.5379 29.672 34.4899 31.752 34.4899 35.4C34.4899 39.048 32.5379 41.128 29.9299 41.128ZM29.9299 39.704C31.6739 39.704 32.8899 38.264 32.8899 35.4C32.8899 32.536 31.6739 31.096 29.9299 31.096C28.1699 31.096 26.9539 32.536 26.9539 35.4C26.9539 38.264 28.1699 39.704 29.9299 39.704ZM40.3138 34.504C42.5538 34.712 43.6898 35.976 43.6898 37.704C43.6898 39.592 42.2978 41.128 39.4498 41.128C37.8498 41.128 36.2818 40.616 35.3378 39.768L36.0738 38.504C36.8258 39.208 38.0738 39.704 39.4498 39.704C41.1298 39.704 42.0898 38.936 42.0898 37.72C42.0898 36.536 41.2418 35.768 39.3218 35.768H38.4258V34.648L41.2418 31.192H35.8498V29.8H43.2418V30.888L40.3138 34.504Z" fill="#9BC5C6"/>
</svg>
