<svg width="69" height="69" viewBox="0 0 69 69" fill="none" xmlns="http://www.w3.org/2000/svg">
<circle cx="34.5" cy="34.5" r="33.5" fill="#03223E" stroke="#417CFF" stroke-width="2"/>
<path d="M29.9299 41.128C27.3059 41.128 25.3539 39.048 25.3539 35.4C25.3539 31.752 27.3059 29.672 29.9299 29.672C32.5379 29.672 34.4899 31.752 34.4899 35.4C34.4899 39.048 32.5379 41.128 29.9299 41.128ZM29.9299 39.704C31.6739 39.704 32.8899 38.264 32.8899 35.4C32.8899 32.536 31.6739 31.096 29.9299 31.096C28.1699 31.096 26.9539 32.536 26.9539 35.4C26.9539 38.264 28.1699 39.704 29.9299 39.704ZM35.8498 41V39.608H41.5C42.5 39.608 43.1 38.8 43.1 37.5C43.1 36.2 42.5 35.4 41 35.4H38.5V36.5H37V34.5H41.5C42.8 34.5 44 35.8 44 37.8C44 39.8 42.8 41.128 41 41.128H35.8498V41ZM36.5 34.5H35.8498V29.8H43.2418V31.192H37.2418V34.5H36.5Z" fill="#9BC5C6"/>
</svg>
