<svg width="69" height="69" viewBox="0 0 69 69" fill="none" xmlns="http://www.w3.org/2000/svg">
<circle cx="34.5" cy="34.5" r="33.5" stroke="#417CFF" stroke-width="2"/>
<path d="M42.9743 28H25.0257C24.4615 28 24 28.45 24 29V40C24 40.5499 24.4615 41 25.0257 41H42.9743C43.5384 41 44 40.55 44 40V29C44 28.45 43.5384 28 42.9743 28ZM42.5894 28.7499L34.59 34.6C34.4462 34.7067 34.2254 34.7735 33.9999 34.7725C33.7746 34.7735 33.5538 34.7067 33.4099 34.6L25.4105 28.7499H42.5894ZM38.3164 34.986L42.6754 40.236C42.6797 40.2413 42.6851 40.2453 42.6897 40.2501H25.3102C25.3148 40.2451 25.3202 40.2413 25.3246 40.236L29.6836 34.986C29.8171 34.825 29.7918 34.589 29.6264 34.4585C29.4613 34.3283 29.2192 34.353 29.0856 34.514L24.7692 39.7127V29.2187L32.9487 35.1999C33.2561 35.4232 33.6302 35.5215 33.9999 35.5225C34.3691 35.5217 34.7435 35.4234 35.0512 35.1999L43.2306 29.2187V39.7127L38.9143 34.514C38.7807 34.353 38.5384 34.3282 38.3735 34.4585C38.2081 34.5887 38.1827 34.825 38.3164 34.986Z" fill="#9BC5C6"/>
</svg>
