<svg width="69" height="69" viewBox="0 0 69 69" fill="none" xmlns="http://www.w3.org/2000/svg">
<circle cx="34.5" cy="34.5" r="33.5" fill="#03223E" stroke="#417CFF" stroke-width="2"/>
<path d="M28.1565 41.128C25.5325 41.128 23.5805 39.048 23.5805 35.4C23.5805 31.752 25.5325 29.672 28.1565 29.672C30.7645 29.672 32.7165 31.752 32.7165 35.4C32.7165 39.048 30.7645 41.128 28.1565 41.128ZM28.1565 39.704C29.9005 39.704 31.1165 38.264 31.1165 35.4C31.1165 32.536 29.9005 31.096 28.1565 31.096C26.3965 31.096 25.1805 32.536 25.1805 35.4C25.1805 38.264 26.3965 39.704 28.1565 39.704ZM43.9964 36.872V38.248H41.8684V41H40.3164V38.248H34.0924V37.128L39.8204 29.8H41.5484L36.0604 36.872H40.3644V34.44H41.8684V36.872H43.9964Z" fill="#9BC5C6"/>
</svg>
