<svg width="205" height="40" viewBox="0 0 205 40" fill="none" xmlns="http://www.w3.org/2000/svg">
<path d="M18.0705 10.8806C20.2447 11.6131 21.3365 13.1202 21.3365 15.4064C21.3365 16.5122 21.0426 17.4873 20.4593 18.3272C19.8855 19.1577 19.1063 19.7456 18.1265 20.0908C17.1466 20.4361 15.7516 20.6041 13.9413 20.6041H3.03735V20.1655C3.38262 20.0722 3.61591 19.9508 3.73722 19.7969C3.85386 19.6429 3.91452 19.3723 3.91452 18.9897V3.49933C3.91452 3.11674 3.85386 2.84146 3.73722 2.68282C3.61591 2.52419 3.38262 2.40288 3.03735 2.31889V1.88031H14.2025C15.299 1.88031 16.2088 1.96896 16.9274 2.14159C17.6459 2.31423 18.2804 2.6035 18.8263 3.00476C20.0861 3.90992 20.7206 5.20701 20.7206 6.90068C20.7206 8.70167 19.8388 10.0267 18.0751 10.8806H18.0705ZM6.0701 9.96143H13.2834C14.3052 9.96143 15.075 9.92877 15.5789 9.86345C16.0875 9.79812 16.5541 9.68148 16.9833 9.50885C17.5152 9.28956 17.9258 8.95362 18.2198 8.49171C18.5137 8.03446 18.6584 7.50257 18.6584 6.90068C18.6584 6.09817 18.3971 5.4123 17.8745 4.84308C17.4546 4.39516 16.9087 4.08722 16.2368 3.91925C15.5649 3.75128 14.5338 3.6673 13.1434 3.6673H6.06544V9.96143H6.0701ZM6.0701 18.8217H13.5867C14.6645 18.8217 15.467 18.7891 15.9895 18.7191C16.5121 18.6491 16.9927 18.5138 17.4453 18.3132C17.9958 18.0565 18.4204 17.6739 18.7283 17.1607C19.0363 16.6475 19.1856 16.0549 19.1856 15.3784C19.1856 14.4826 18.915 13.7174 18.3784 13.0875C17.9305 12.5649 17.3566 12.2103 16.6614 12.0237C15.9662 11.8371 14.8977 11.7438 13.4514 11.7438H6.0701V18.8217Z" fill="white"/>
<path d="M36.1645 1.55371C39.4632 1.55371 42.1273 2.41688 44.1476 4.14788C45.2814 5.10903 46.1305 6.2848 46.6998 7.6752C47.1663 8.81832 47.3996 10.0501 47.3996 11.3658C47.3996 13.1482 46.8911 14.8185 45.8786 16.3722C44.7635 18.0939 43.2098 19.3303 41.2268 20.0908C39.7431 20.6554 38.0681 20.94 36.1925 20.94C32.9077 20.94 30.2623 20.0768 28.2513 18.3458C27.1269 17.3753 26.2777 16.1996 25.6991 14.8185C25.2326 13.6847 24.9993 12.4903 24.9993 11.2399C24.9993 9.38288 25.5032 7.6752 26.5063 6.1075C27.6028 4.41383 29.1565 3.18207 31.1721 2.40288C32.5811 1.86165 34.2468 1.58171 36.1645 1.55371ZM36.1645 3.43402C33.3557 3.43402 31.1348 4.22253 29.4971 5.7949C27.9947 7.24129 27.2482 9.05627 27.2482 11.2399C27.2482 13.4234 27.9947 15.2524 29.4971 16.6988C31.1254 18.2712 33.3557 19.0597 36.1925 19.0597C39.0292 19.0597 41.2735 18.2712 42.9158 16.6988C44.4042 15.2524 45.1507 13.4701 45.1507 11.3472C45.1507 9.05161 44.4042 7.1993 42.9158 5.79023C42.02 4.95039 41.0589 4.35784 40.037 4.0219C38.9033 3.63931 37.6108 3.44335 36.1691 3.43402H36.1645Z" fill="white"/>
<path d="M53.5164 18.8217H65.4794C65.862 18.8217 66.1373 18.7611 66.2959 18.6444C66.4545 18.5278 66.5759 18.2945 66.6598 17.9446H67.0984V21.4859H66.6598C66.5759 21.136 66.4545 20.9027 66.2959 20.786C66.1373 20.6647 65.862 20.6087 65.4794 20.6087H50.4883V20.1701C50.8429 20.0768 51.0808 19.9555 51.1928 19.8015C51.3095 19.6476 51.3654 19.377 51.3654 18.9944V3.49934C51.3654 3.11674 51.3048 2.84613 51.1881 2.69216C51.0668 2.53819 50.8335 2.41221 50.4883 2.32356V1.88498H54.3982V2.32356C54.0483 2.41688 53.815 2.53819 53.6983 2.69216C53.577 2.84613 53.521 3.11674 53.521 3.49934V18.8217H53.5164Z" fill="white"/>
<path d="M70.9804 19.181V3.30804C70.9804 3.03276 70.9151 2.8228 70.7891 2.67816C70.6585 2.53352 70.4345 2.41221 70.1033 2.32356V1.88498H79.9807C82.2203 1.88498 83.9373 2.19759 85.1224 2.81813C86.6201 3.59732 87.7632 4.79175 88.5517 6.41078C89.2376 7.82917 89.5829 9.43886 89.5829 11.2399C89.5829 13.3721 89.121 15.2104 88.1971 16.7548C87.3666 18.1265 86.3122 19.111 85.0337 19.7129C83.76 20.3101 82.071 20.6134 79.9807 20.6134H70.1033V20.1748C70.4345 20.0815 70.6585 19.9648 70.7891 19.8202C70.9151 19.6756 70.9804 19.4656 70.9804 19.1903V19.181ZM73.1314 18.8217H79.8921C81.875 18.8217 83.3494 18.5138 84.3105 17.9026C85.4443 17.17 86.2748 16.0503 86.8067 14.5432C87.152 13.5354 87.3293 12.4343 87.3293 11.2352C87.3293 9.06094 86.7741 7.25528 85.6683 5.83222C85.0571 5.04371 84.3105 4.48848 83.4334 4.15721C82.5562 3.82594 81.3758 3.66264 79.8921 3.66264H73.1314V18.8217Z" fill="white"/>
<path d="M109.744 12.4296H98.9471V19.1763C98.9471 19.4516 99.0124 19.6616 99.1477 19.8155C99.2783 19.9648 99.5069 20.0815 99.8242 20.1655V20.6041H93.9827V20.1655C94.3139 20.0722 94.5426 19.9555 94.6685 19.8109C94.7992 19.6662 94.8598 19.4563 94.8598 19.181V3.30804C94.8598 3.03276 94.7945 2.8228 94.6685 2.67816C94.5426 2.53352 94.3139 2.41221 93.9827 2.32356V1.88498H99.8242V2.32356C99.4929 2.40754 99.269 2.52419 99.1383 2.67349C99.0124 2.8228 98.9471 3.03742 98.9471 3.3127V9.35021H109.744V3.30804C109.744 3.03276 109.678 2.8228 109.552 2.66883C109.426 2.51952 109.198 2.40288 108.866 2.31889V1.88031H114.708V2.31889C114.377 2.41221 114.153 2.52885 114.022 2.67349C113.896 2.81813 113.831 3.02809 113.831 3.30337V19.1763C113.831 19.4516 113.896 19.6616 114.022 19.8062C114.153 19.9508 114.377 20.0722 114.708 20.1608V20.5994H108.866V20.1608C109.188 20.0768 109.412 19.9602 109.548 19.8109C109.678 19.6616 109.744 19.4469 109.744 19.1717V12.425V12.4296Z" fill="white"/>
<path d="M132.359 15.831H123.848L122.589 18.4625C122.416 18.8264 122.327 19.1157 122.327 19.3256C122.327 19.7269 122.635 20.0068 123.246 20.1608V20.5994H117.055V20.1608C117.419 20.0862 117.699 19.9602 117.89 19.7782C118.081 19.5962 118.301 19.237 118.548 18.7097L125.435 4.32051C125.654 3.86326 125.766 3.49933 125.766 3.22405C125.766 2.80413 125.5 2.50086 124.968 2.31889V1.88031H131.607V2.31889C131.066 2.47286 130.8 2.74348 130.8 3.12607C130.8 3.39202 130.884 3.6953 131.062 4.03123L138.196 18.4625C138.499 19.0737 138.76 19.4936 138.993 19.7176C139.222 19.9415 139.53 20.0908 139.913 20.1655V20.6041H133.021V20.1655C133.628 20.0628 133.931 19.7829 133.931 19.3163C133.931 19.125 133.838 18.8404 133.656 18.4671L132.368 15.8356L132.359 15.831ZM131.183 13.2695L128.145 6.59741L125.057 13.2695H131.178H131.183Z" fill="white"/>
<path d="M147.126 15.1638L152.095 4.17587C152.305 3.7093 152.412 3.35003 152.412 3.09341C152.412 2.70149 152.109 2.44487 151.507 2.32356V1.88498H157.918V2.32356C157.512 2.37955 157.237 2.49153 157.078 2.66416C156.924 2.8368 156.653 3.3407 156.266 4.17121L149.776 18.1779C149.501 18.7704 149.365 19.1623 149.365 19.3443C149.365 19.8109 149.655 20.0862 150.229 20.1655V20.6041H143.776V20.1655C144.35 20.0815 144.639 19.8062 144.639 19.3303C144.639 19.1577 144.499 18.7751 144.228 18.1779L137.738 4.17121C137.356 3.3407 137.085 2.8368 136.931 2.66416C136.777 2.49153 136.497 2.37489 136.096 2.32356V1.88498H142.745V2.32356C142.143 2.44487 141.84 2.69682 141.84 3.09341C141.84 3.35003 141.947 3.7093 142.157 4.17587L147.13 15.1638H147.126Z" fill="white"/>
<path d="M165.033 12.3876V17.52H177.075C177.351 17.52 177.561 17.4547 177.705 17.3287C177.855 17.2027 177.971 16.9741 178.06 16.6428H178.498V21.4859H178.06C177.967 21.1546 177.85 20.926 177.705 20.8C177.561 20.6694 177.351 20.6087 177.075 20.6087H160.064V20.1701C160.395 20.0768 160.624 19.9602 160.75 19.8155C160.88 19.6709 160.941 19.4563 160.941 19.1717V3.32204C160.941 3.03742 160.876 2.8228 160.75 2.67816C160.624 2.53352 160.395 2.41221 160.064 2.32356V1.88498H176.744C177.019 1.88498 177.229 1.81966 177.374 1.68902C177.523 1.55837 177.64 1.32975 177.729 1.00781H178.167V5.85088H177.729C177.635 5.52428 177.519 5.30032 177.374 5.16968C177.229 5.03904 177.019 4.97372 176.744 4.97372H165.028V9.4202H172.629C172.904 9.4202 173.114 9.35488 173.259 9.2289C173.408 9.10293 173.525 8.8743 173.613 8.54303H174.052V13.2741H173.613C173.52 12.9522 173.403 12.7282 173.259 12.5929C173.114 12.4623 172.904 12.3923 172.629 12.3923H165.028L165.033 12.3876Z" fill="white"/>
<path d="M185.474 7.78252V19.167C185.474 19.4516 185.534 19.6662 185.665 19.8109C185.791 19.9555 186.02 20.0768 186.351 20.1655V20.6041H180.85V20.1655C181.181 20.0722 181.405 19.9555 181.536 19.8109C181.662 19.6662 181.727 19.4516 181.727 19.167V3.30804C181.727 3.03276 181.662 2.8228 181.536 2.67816C181.405 2.53352 181.181 2.41221 180.85 2.32356V1.88498H187.214V2.32356C186.822 2.42621 186.626 2.63617 186.626 2.95344C186.626 3.17273 186.752 3.41535 187.009 3.6813L197.339 14.4219V3.30804C197.339 3.03276 197.273 2.8228 197.147 2.67816C197.017 2.53352 196.793 2.41221 196.462 2.32356V1.88498H201.962V2.32356C201.631 2.41688 201.403 2.53352 201.277 2.67816C201.146 2.8228 201.085 3.03276 201.085 3.30804V19.167C201.085 19.4516 201.146 19.6662 201.277 19.8109C201.403 19.9555 201.631 20.0768 201.962 20.1655V20.6041H196.065V20.1655C196.448 20.0815 196.639 19.8855 196.639 19.5776C196.639 19.3956 196.415 19.0737 195.967 18.6164L185.474 7.77785V7.78252Z" fill="white"/>
<path d="M51.9395 38.264L48.2815 30.9527V37.5128C48.2815 37.6854 48.3095 37.8114 48.3655 37.8861C48.4215 37.9607 48.5288 38.0167 48.6921 38.0634V38.2686H46.9751V38.0634C47.1337 38.0214 47.2457 37.9654 47.3017 37.8907C47.3577 37.8207 47.3857 37.6948 47.3857 37.5128V30.3228C47.3857 30.1455 47.3577 30.0196 47.3017 29.9449C47.2457 29.8703 47.1384 29.8143 46.9751 29.7769V29.5717H49.224V29.7769C49.014 29.8469 48.9114 29.9402 48.9114 30.0429C48.9114 30.0942 48.9814 30.2575 49.1214 30.5328L52.0188 36.2624L54.9256 30.4815C55.0282 30.2762 55.0795 30.1315 55.0795 30.0476C55.0795 29.9356 54.9769 29.8469 54.7669 29.7723V29.567H57.0438V29.7723C56.8852 29.8143 56.7732 29.8703 56.7172 29.9449C56.6612 30.0149 56.6332 30.1409 56.6332 30.3228V37.5128C56.6332 37.6854 56.6612 37.8114 56.7172 37.8861C56.7732 37.9607 56.8805 38.0167 57.0438 38.0634V38.2686H55.2288V38.0634C55.3922 38.0214 55.5041 37.9654 55.5555 37.8907C55.6068 37.8161 55.6348 37.6948 55.6348 37.5128V30.9527L51.9441 38.264H51.9395Z" fill="white"/>
<path d="M66.1513 35.8238H61.4995L60.7343 37.4755C60.6597 37.6341 60.627 37.7414 60.627 37.8067C60.627 37.9327 60.753 38.0167 61.0049 38.0634V38.2687H59.064V38.0634C59.2366 38.0354 59.3719 37.97 59.4606 37.8721C59.5539 37.7741 59.6705 37.5641 59.8198 37.2329L63.0065 30.3602C63.0812 30.1969 63.1232 30.0802 63.1232 30.0242C63.1232 29.9123 63.0205 29.8329 62.8106 29.7769V29.5717H64.9242V29.7769C64.7142 29.8469 64.6116 29.9356 64.6116 30.0429C64.6116 30.0896 64.6489 30.1969 64.7282 30.3602L67.7796 36.9856C68.0036 37.4755 68.1529 37.7601 68.2275 37.8441C68.2975 37.9281 68.4562 38.0027 68.6988 38.0587V38.264H66.6365V38.0587C66.8838 38.026 67.0051 37.9327 67.0051 37.7787C67.0051 37.7088 66.9585 37.5781 66.8651 37.3822L66.1559 35.8238H66.1513ZM65.7827 34.9979L63.8231 30.7008L61.8681 34.9979H65.7827Z" fill="white"/>
<path d="M71.9649 30.6728V37.5128C71.9649 37.6854 71.9929 37.8114 72.0489 37.8861C72.1049 37.9607 72.2122 38.0167 72.3755 38.0634V38.2686H70.6492V38.0634C70.8171 38.0214 70.9245 37.9654 70.9804 37.8907C71.0318 37.8207 71.0598 37.6948 71.0598 37.5128V30.3228C71.0598 30.1455 71.0318 30.0196 70.9758 29.9449C70.9198 29.8703 70.8125 29.8143 70.6492 29.7769V29.5717H73.15V29.7769C72.9494 29.8469 72.8514 29.9402 72.8514 30.0616C72.8514 30.1455 72.9494 30.3042 73.15 30.5375L78.3897 36.6636V30.3182C78.3897 30.1409 78.3617 30.0149 78.3057 29.9402C78.2497 29.8656 78.1424 29.8096 77.9791 29.7723V29.567H79.7054V29.7723C79.5421 29.8096 79.4348 29.8656 79.3788 29.9402C79.3228 30.0149 79.2948 30.1409 79.2948 30.3182V37.5081C79.2948 37.6854 79.3228 37.8114 79.3788 37.8861C79.4348 37.956 79.5421 38.0167 79.7054 38.0587V38.264H77.6992V38.0587C77.8951 38.0074 77.9931 37.9187 77.9931 37.7974C77.9931 37.7041 77.9044 37.5501 77.7271 37.3402L71.9696 30.6728H71.9649Z" fill="white"/>
<path d="M89.0416 35.8238H84.3898L83.6247 37.4755C83.55 37.6341 83.5174 37.7414 83.5174 37.8067C83.5174 37.9327 83.6433 38.0167 83.8953 38.0634V38.2687H81.959V38.0634C82.1316 38.0354 82.2669 37.97 82.3556 37.8721C82.4489 37.7741 82.5655 37.5641 82.7148 37.2329L85.8969 30.3602C85.9715 30.1969 86.0135 30.0802 86.0135 30.0242C86.0135 29.9123 85.9109 29.8329 85.7009 29.7769V29.5717H87.8145V29.7769C87.6046 29.8469 87.5019 29.9356 87.5019 30.0429C87.5019 30.0896 87.5392 30.1969 87.6186 30.3602L90.67 36.9856C90.8939 37.4755 91.0432 37.7601 91.1132 37.8441C91.1879 37.9281 91.3418 38.0027 91.5845 38.0587V38.264H89.5222V38.0587C89.7695 38.026 89.8908 37.9327 89.8908 37.7787C89.8908 37.7088 89.8441 37.5781 89.7508 37.3822L89.0416 35.8238ZM88.673 34.9979L86.7134 30.7008L84.7584 34.9979H88.673Z" fill="white"/>
<path d="M102.208 30.4068L101.229 31.9605L101.065 31.8486C101.14 31.7226 101.177 31.6246 101.177 31.564C101.177 31.4333 100.949 31.2467 100.496 31.0041C99.6189 30.5282 98.7277 30.2949 97.8085 30.2949C96.7447 30.2949 95.8443 30.5935 95.1164 31.1907C94.2812 31.8719 93.8613 32.7864 93.8613 33.9388C93.8613 35.0913 94.2579 35.9591 95.0604 36.6263C95.7929 37.2422 96.7307 37.5501 97.8739 37.5501C98.4757 37.5501 99.0496 37.4568 99.5955 37.2655C100.141 37.0789 100.599 36.813 100.977 36.4723V34.8673H98.919C98.7417 34.8673 98.6157 34.8953 98.5411 34.9513C98.4664 35.0073 98.4104 35.1146 98.3731 35.2779H98.1678V33.6356H98.3731C98.4104 33.7989 98.4664 33.9062 98.5411 33.9622C98.6157 34.0182 98.7417 34.0461 98.919 34.0461H102.339V34.2514C102.176 34.2934 102.068 34.3494 102.012 34.4241C101.956 34.4941 101.928 34.62 101.928 34.802V35.9311C101.928 36.1084 101.956 36.2344 102.012 36.309C102.068 36.379 102.176 36.4397 102.339 36.4817V36.659C101.858 37.0882 101.406 37.4195 100.981 37.6575C100.062 38.1754 99.0076 38.4366 97.8272 38.4366C96.3761 38.4366 95.2004 38.0447 94.3045 37.2562C93.8613 36.8689 93.5114 36.407 93.2547 35.8658C92.9608 35.2499 92.8162 34.6014 92.8162 33.9155C92.8162 32.9357 93.1008 32.0632 93.6747 31.3027C94.2066 30.6028 94.9158 30.0896 95.8163 29.7676C96.4461 29.5437 97.1273 29.4317 97.8552 29.4317C98.4944 29.4317 99.0823 29.5064 99.6235 29.6603C100.165 29.8143 100.753 30.0662 101.383 30.4162C101.564 30.5188 101.676 30.5701 101.718 30.5701C101.788 30.5701 101.891 30.4815 102.031 30.3042L102.204 30.4208L102.208 30.4068Z" fill="white"/>
<path d="M106.44 34.2094V37.4381H112.011C112.189 37.4381 112.315 37.4101 112.389 37.3542C112.464 37.2982 112.52 37.1909 112.557 37.0276H112.762V38.6699H112.557C112.515 38.5066 112.459 38.3993 112.385 38.3433C112.31 38.2873 112.184 38.2593 112.007 38.2593H105.031V38.054C105.195 38.012 105.307 37.956 105.358 37.8814C105.409 37.8114 105.437 37.6854 105.437 37.5035V30.3135C105.437 30.1362 105.409 30.0102 105.353 29.9356C105.297 29.8656 105.19 29.8049 105.027 29.763V29.5577H111.923C112.1 29.5577 112.226 29.5297 112.296 29.4783C112.371 29.4223 112.427 29.315 112.469 29.1517H112.674V30.7941H112.469C112.431 30.6354 112.375 30.5281 112.301 30.4721C112.226 30.4162 112.1 30.3882 111.923 30.3882H106.431V33.3696H110.028C110.206 33.3696 110.336 33.3416 110.406 33.2856C110.481 33.2296 110.537 33.1223 110.574 32.959H110.78V34.6014H110.574C110.537 34.4381 110.481 34.3307 110.406 34.2748C110.332 34.2188 110.206 34.1908 110.028 34.1908H106.431L106.44 34.2094Z" fill="white"/>
<path d="M120.433 38.264L116.775 30.9527V37.5128C116.775 37.6854 116.803 37.8114 116.859 37.8861C116.915 37.9607 117.022 38.0167 117.186 38.0634V38.2686H115.469V38.0634C115.627 38.0214 115.739 37.9654 115.795 37.8907C115.851 37.8207 115.879 37.6948 115.879 37.5128V30.3228C115.879 30.1455 115.851 30.0196 115.795 29.9449C115.739 29.8703 115.632 29.8143 115.469 29.7769V29.5717H117.717V29.7769C117.507 29.8469 117.405 29.9402 117.405 30.0429C117.405 30.0942 117.475 30.2575 117.615 30.5328L120.512 36.2624L123.419 30.4815C123.522 30.2762 123.573 30.1315 123.573 30.0476C123.573 29.9356 123.47 29.8469 123.26 29.7723V29.567H125.537V29.7723C125.379 29.8143 125.267 29.8703 125.211 29.9449C125.155 30.0149 125.127 30.1409 125.127 30.3228V37.5128C125.127 37.6854 125.155 37.8114 125.211 37.8861C125.267 37.9607 125.374 38.0167 125.537 38.0634V38.2686H123.722V38.0634C123.886 38.0214 123.998 37.9654 124.049 37.8907C124.1 37.8161 124.128 37.6948 124.128 37.5128V30.9527L120.438 38.264H120.433Z" fill="white"/>
<path d="M129.886 34.2094V37.4381H135.457C135.634 37.4381 135.76 37.4101 135.835 37.3542C135.909 37.2982 135.965 37.1909 136.003 37.0276H136.208V38.6699H136.003C135.961 38.5066 135.9 38.3993 135.825 38.3433C135.751 38.2873 135.625 38.2593 135.447 38.2593H128.472V38.054C128.635 38.012 128.747 37.956 128.799 37.8814C128.85 37.8114 128.878 37.6854 128.878 37.5035V30.3135C128.878 30.1362 128.85 30.0102 128.794 29.9356C128.738 29.8656 128.631 29.8049 128.467 29.763V29.5577H135.363C135.541 29.5577 135.667 29.5297 135.737 29.4783C135.807 29.4223 135.867 29.315 135.909 29.1517H136.114V30.7941H135.909C135.872 30.6354 135.816 30.5281 135.741 30.4721C135.667 30.4162 135.541 30.3882 135.363 30.3882H129.872V33.3696H133.469C133.646 33.3696 133.772 33.3416 133.847 33.2856C133.922 33.2296 133.978 33.1223 134.015 32.959H134.22V34.6014H134.015C133.978 34.4381 133.922 34.3307 133.847 34.2748C133.772 34.2188 133.646 34.1908 133.469 34.1908H129.872L129.886 34.2094Z" fill="white"/>
<path d="M140.23 30.6728V37.5128C140.23 37.6854 140.258 37.8114 140.314 37.8861C140.37 37.9607 140.477 38.0167 140.64 38.0634V38.2686H138.914V38.0634C139.077 38.0214 139.189 37.9654 139.241 37.8907C139.292 37.8207 139.32 37.6948 139.32 37.5128V30.3228C139.32 30.1455 139.292 30.0196 139.236 29.9449C139.18 29.8703 139.073 29.8143 138.909 29.7769V29.5717H141.406V29.7769C141.205 29.8469 141.107 29.9402 141.107 30.0616C141.107 30.1455 141.205 30.3042 141.406 30.5375L146.645 36.6636V30.3182C146.645 30.1409 146.617 30.0149 146.561 29.9402C146.505 29.8656 146.398 29.8096 146.235 29.7723V29.567H147.961V29.7723C147.798 29.8096 147.69 29.8656 147.634 29.9402C147.578 30.0149 147.55 30.1409 147.55 30.3182V37.5081C147.55 37.6854 147.578 37.8114 147.634 37.8861C147.69 37.956 147.798 38.0167 147.961 38.0587V38.264H145.955V38.0587C146.151 38.0074 146.249 37.9187 146.249 37.7974C146.249 37.7041 146.16 37.5501 145.983 37.3402L140.225 30.6728H140.23Z" fill="white"/>
<path d="M154.787 30.4022V37.5175C154.787 37.6901 154.815 37.8161 154.871 37.8907C154.927 37.9654 155.034 38.0214 155.198 38.068V38.2733H153.383V38.068C153.546 38.026 153.653 37.9701 153.709 37.8954C153.765 37.8254 153.793 37.6994 153.793 37.5175V30.4022H150.849C150.672 30.4022 150.546 30.4302 150.471 30.4815C150.397 30.5375 150.341 30.6448 150.303 30.8081H150.098V29.1657H150.303C150.341 29.329 150.397 29.4364 150.471 29.4923C150.546 29.5483 150.672 29.5717 150.849 29.5717H157.731C157.908 29.5717 158.039 29.5437 158.109 29.4923C158.184 29.4364 158.24 29.329 158.277 29.1657H158.482V30.8081H158.277C158.24 30.6448 158.184 30.5375 158.109 30.4815C158.034 30.4255 157.908 30.4022 157.731 30.4022H154.792H154.787Z" fill="white"/>
</svg>
